<mxfile host="app.diagrams.net" agent="Mozilla/5.0 (Windows NT 10.0; Win64; x64) AppleWebKit/537.36 (KHTML, like Gecko) Chrome/138.0.0.0 Safari/537.36" version="27.1.6">
  <diagram name="Página-1" id="plN8nYi-ykeQKa-kNMtH">
    <mxGraphModel grid="1" page="1" gridSize="10" guides="1" tooltips="1" connect="1" arrows="1" fold="1" pageScale="1" pageWidth="827" pageHeight="1169" math="0" shadow="0">
      <root>
        <mxCell id="0" />
        <mxCell id="1" parent="0" />
        <mxCell id="tgw0Q6IZ3GdZd5LGhPPe-1" value="Restaurante" style="swimlane;fontStyle=1;align=center;verticalAlign=top;childLayout=stackLayout;horizontal=1;startSize=26;horizontalStack=0;resizeParent=1;resizeParentMax=0;resizeLast=0;collapsible=1;marginBottom=0;whiteSpace=wrap;html=1;" vertex="1" parent="1">
          <mxGeometry x="200" y="275" width="160" height="80" as="geometry" />
        </mxCell>
        <mxCell id="tgw0Q6IZ3GdZd5LGhPPe-2" value="&lt;b&gt;&lt;span style=&quot;white-space: pre;&quot;&gt;&#x9;&lt;/span&gt;nombre&lt;/b&gt;&lt;div&gt;&lt;span style=&quot;white-space: pre;&quot;&gt;&#x9;&lt;/span&gt;numContacto&lt;/div&gt;&lt;div&gt;&lt;span style=&quot;white-space: pre;&quot;&gt;&#x9;&lt;/span&gt;agregar&lt;br&gt;&lt;/div&gt;" style="text;strokeColor=none;fillColor=none;align=left;verticalAlign=top;spacingLeft=4;spacingRight=4;overflow=hidden;rotatable=0;points=[[0,0.5],[1,0.5]];portConstraint=eastwest;whiteSpace=wrap;html=1;" vertex="1" parent="tgw0Q6IZ3GdZd5LGhPPe-1">
          <mxGeometry y="26" width="160" height="54" as="geometry" />
        </mxCell>
        <mxCell id="tgw0Q6IZ3GdZd5LGhPPe-3" value="Manager" style="swimlane;fontStyle=1;align=center;verticalAlign=top;childLayout=stackLayout;horizontal=1;startSize=26;horizontalStack=0;resizeParent=1;resizeParentMax=0;resizeLast=0;collapsible=1;marginBottom=0;whiteSpace=wrap;html=1;" vertex="1" parent="1">
          <mxGeometry x="460" y="270" width="160" height="97" as="geometry">
            <mxRectangle x="310" y="35" width="90" height="30" as="alternateBounds" />
          </mxGeometry>
        </mxCell>
        <mxCell id="tgw0Q6IZ3GdZd5LGhPPe-4" value="&lt;b&gt;&lt;span style=&quot;white-space: pre;&quot;&gt;&#x9;&lt;/span&gt;nombre&lt;/b&gt;&lt;div&gt;&lt;span style=&quot;background-color: transparent; color: light-dark(rgb(0, 0, 0), rgb(255, 255, 255));&quot;&gt;&lt;span style=&quot;white-space: pre;&quot;&gt;&#x9;&lt;/span&gt;numContacto&lt;/span&gt;&lt;/div&gt;&lt;div&gt;&lt;span style=&quot;background-color: transparent; color: light-dark(rgb(0, 0, 0), rgb(255, 255, 255));&quot;&gt;&lt;span style=&quot;white-space: pre;&quot;&gt;&#x9;&lt;/span&gt;agregar&lt;br&gt;&lt;/span&gt;&lt;/div&gt;&lt;div&gt;&lt;b style=&quot;background-color: transparent; color: light-dark(rgb(0, 0, 0), rgb(255, 255, 255));&quot;&gt;&lt;span style=&quot;white-space: pre;&quot;&gt;&#x9;&lt;/span&gt;restauranteNombre&lt;/b&gt;&lt;/div&gt;" style="text;strokeColor=none;fillColor=none;align=left;verticalAlign=top;spacingLeft=4;spacingRight=4;overflow=hidden;rotatable=0;points=[[0,0.5],[1,0.5]];portConstraint=eastwest;whiteSpace=wrap;html=1;" vertex="1" parent="tgw0Q6IZ3GdZd5LGhPPe-3">
          <mxGeometry y="26" width="160" height="71" as="geometry" />
        </mxCell>
        <mxCell id="tgw0Q6IZ3GdZd5LGhPPe-5" value="Tiene" style="endArrow=classicThin;html=1;rounded=0;exitX=1.003;exitY=0.423;exitDx=0;exitDy=0;entryX=0;entryY=0.395;entryDx=0;entryDy=0;endFill=1;exitPerimeter=0;entryPerimeter=0;" edge="1" parent="1" source="tgw0Q6IZ3GdZd5LGhPPe-2" target="tgw0Q6IZ3GdZd5LGhPPe-4">
          <mxGeometry relative="1" as="geometry">
            <mxPoint x="440" y="535" as="sourcePoint" />
            <mxPoint x="600" y="535" as="targetPoint" />
          </mxGeometry>
        </mxCell>
        <mxCell id="tgw0Q6IZ3GdZd5LGhPPe-6" value="1" style="resizable=0;html=1;whiteSpace=wrap;align=left;verticalAlign=bottom;fontStyle=1" connectable="0" vertex="1" parent="tgw0Q6IZ3GdZd5LGhPPe-5">
          <mxGeometry x="-1" relative="1" as="geometry" />
        </mxCell>
        <mxCell id="tgw0Q6IZ3GdZd5LGhPPe-7" value="N" style="resizable=0;html=1;whiteSpace=wrap;align=right;verticalAlign=bottom;fontStyle=1" connectable="0" vertex="1" parent="tgw0Q6IZ3GdZd5LGhPPe-5">
          <mxGeometry x="1" relative="1" as="geometry" />
        </mxCell>
        <mxCell id="tgw0Q6IZ3GdZd5LGhPPe-8" value="Orden" style="swimlane;fontStyle=1;align=center;verticalAlign=top;childLayout=stackLayout;horizontal=1;startSize=26;horizontalStack=0;resizeParent=1;resizeParentMax=0;resizeLast=0;collapsible=1;marginBottom=0;whiteSpace=wrap;html=1;" vertex="1" parent="1">
          <mxGeometry x="700" y="366.15999999999997" width="160" height="80" as="geometry">
            <mxRectangle x="560" y="35" width="70" height="30" as="alternateBounds" />
          </mxGeometry>
        </mxCell>
        <mxCell id="tgw0Q6IZ3GdZd5LGhPPe-9" value="&lt;b&gt;&lt;span style=&quot;white-space: pre;&quot;&gt;&#x9;&lt;/span&gt;numOrden&lt;/b&gt;&lt;div&gt;&lt;span style=&quot;white-space: pre;&quot;&gt;&#x9;&lt;/span&gt;NumItems&lt;/div&gt;&lt;div&gt;&lt;b&gt;&lt;span style=&quot;white-space: pre;&quot;&gt;&#x9;&lt;/span&gt;managerNombre&lt;/b&gt;&lt;/div&gt;" style="text;strokeColor=none;fillColor=none;align=left;verticalAlign=top;spacingLeft=4;spacingRight=4;overflow=hidden;rotatable=0;points=[[0,0.5],[1,0.5]];portConstraint=eastwest;whiteSpace=wrap;html=1;" vertex="1" parent="tgw0Q6IZ3GdZd5LGhPPe-8">
          <mxGeometry y="26" width="160" height="54" as="geometry" />
        </mxCell>
        <mxCell id="tgw0Q6IZ3GdZd5LGhPPe-10" value="Tiene" style="endArrow=classicThin;html=1;rounded=0;endFill=1;exitX=0.998;exitY=0.389;exitDx=0;exitDy=0;exitPerimeter=0;" edge="1" parent="1" source="tgw0Q6IZ3GdZd5LGhPPe-4">
          <mxGeometry x="-0.3158" y="10" relative="1" as="geometry">
            <mxPoint x="630" y="345" as="sourcePoint" />
            <mxPoint x="700" y="395" as="targetPoint" />
            <Array as="points">
              <mxPoint x="670" y="323" />
              <mxPoint x="670" y="395" />
            </Array>
            <mxPoint as="offset" />
          </mxGeometry>
        </mxCell>
        <mxCell id="tgw0Q6IZ3GdZd5LGhPPe-11" value="1" style="resizable=0;html=1;whiteSpace=wrap;align=left;verticalAlign=bottom;fontStyle=1" connectable="0" vertex="1" parent="tgw0Q6IZ3GdZd5LGhPPe-10">
          <mxGeometry x="-1" relative="1" as="geometry" />
        </mxCell>
        <mxCell id="tgw0Q6IZ3GdZd5LGhPPe-12" value="N" style="resizable=0;html=1;whiteSpace=wrap;align=right;verticalAlign=bottom;fontStyle=1" connectable="0" vertex="1" parent="tgw0Q6IZ3GdZd5LGhPPe-10">
          <mxGeometry x="1" relative="1" as="geometry" />
        </mxCell>
        <mxCell id="tgw0Q6IZ3GdZd5LGhPPe-13" value="Cheff" style="swimlane;fontStyle=1;align=center;verticalAlign=top;childLayout=stackLayout;horizontal=1;startSize=26;horizontalStack=0;resizeParent=1;resizeParentMax=0;resizeLast=0;collapsible=1;marginBottom=0;whiteSpace=wrap;html=1;" vertex="1" parent="1">
          <mxGeometry x="460" y="415" width="160" height="60" as="geometry">
            <mxRectangle x="560" y="35" width="70" height="30" as="alternateBounds" />
          </mxGeometry>
        </mxCell>
        <mxCell id="tgw0Q6IZ3GdZd5LGhPPe-14" value="&lt;b&gt;&lt;span style=&quot;white-space: pre;&quot;&gt;&#x9;&lt;/span&gt;numID&lt;/b&gt;&lt;div&gt;&lt;span style=&quot;background-color: transparent; color: light-dark(rgb(0, 0, 0), rgb(255, 255, 255));&quot;&gt;&lt;span style=&quot;white-space: pre;&quot;&gt;&#x9;&lt;/span&gt;nombre&lt;/span&gt;&lt;/div&gt;" style="text;strokeColor=none;fillColor=none;align=left;verticalAlign=top;spacingLeft=4;spacingRight=4;overflow=hidden;rotatable=0;points=[[0,0.5],[1,0.5]];portConstraint=eastwest;whiteSpace=wrap;html=1;" vertex="1" parent="tgw0Q6IZ3GdZd5LGhPPe-13">
          <mxGeometry y="26" width="160" height="34" as="geometry" />
        </mxCell>
        <mxCell id="tgw0Q6IZ3GdZd5LGhPPe-15" value="Item" style="swimlane;fontStyle=1;align=center;verticalAlign=top;childLayout=stackLayout;horizontal=1;startSize=26;horizontalStack=0;resizeParent=1;resizeParentMax=0;resizeLast=0;collapsible=1;marginBottom=0;whiteSpace=wrap;html=1;" vertex="1" parent="1">
          <mxGeometry x="950" y="315" width="160" height="70" as="geometry">
            <mxRectangle x="560" y="35" width="70" height="30" as="alternateBounds" />
          </mxGeometry>
        </mxCell>
        <mxCell id="tgw0Q6IZ3GdZd5LGhPPe-16" value="&lt;b&gt;&lt;span style=&quot;white-space: pre;&quot;&gt;&#x9;&lt;/span&gt;descripción&lt;br&gt;&lt;/b&gt;&lt;div&gt;&lt;span style=&quot;font-weight: bold; white-space: pre;&quot;&gt;&#x9;&lt;/span&gt;precio&lt;br&gt;&lt;/div&gt;" style="text;strokeColor=none;fillColor=none;align=left;verticalAlign=top;spacingLeft=4;spacingRight=4;overflow=hidden;rotatable=0;points=[[0,0.5],[1,0.5]];portConstraint=eastwest;whiteSpace=wrap;html=1;" vertex="1" parent="tgw0Q6IZ3GdZd5LGhPPe-15">
          <mxGeometry y="26" width="160" height="44" as="geometry" />
        </mxCell>
        <mxCell id="tgw0Q6IZ3GdZd5LGhPPe-17" value="" style="group" connectable="0" vertex="1" parent="1">
          <mxGeometry x="536" y="366.15999999999997" width="24" as="geometry" />
        </mxCell>
        <mxCell id="tgw0Q6IZ3GdZd5LGhPPe-18" value="Informa" style="endArrow=classicThin;html=1;rounded=0;entryX=0.5;entryY=0;entryDx=0;entryDy=0;endFill=1;exitX=0.5;exitY=1;exitDx=0;exitDy=0;" edge="1" parent="1" source="tgw0Q6IZ3GdZd5LGhPPe-3" target="tgw0Q6IZ3GdZd5LGhPPe-13">
          <mxGeometry x="-0.0027" relative="1" as="geometry">
            <mxPoint x="540" y="349" as="sourcePoint" />
            <mxPoint x="719.9993612979151" y="394.9965586913145" as="targetPoint" />
            <mxPoint as="offset" />
          </mxGeometry>
        </mxCell>
        <mxCell id="tgw0Q6IZ3GdZd5LGhPPe-19" value="1" style="resizable=0;html=1;whiteSpace=wrap;align=right;verticalAlign=middle;fontStyle=1;fontSize=12;labelPosition=left;verticalLabelPosition=middle;spacingLeft=0;spacingBottom=-20;spacingRight=3;" connectable="0" vertex="1" parent="tgw0Q6IZ3GdZd5LGhPPe-18">
          <mxGeometry x="-1" relative="1" as="geometry" />
        </mxCell>
        <mxCell id="tgw0Q6IZ3GdZd5LGhPPe-20" value="N" style="resizable=0;html=1;whiteSpace=wrap;align=right;verticalAlign=bottom;fontStyle=1" connectable="0" vertex="1" parent="tgw0Q6IZ3GdZd5LGhPPe-18">
          <mxGeometry x="1" relative="1" as="geometry">
            <mxPoint x="-3" as="offset" />
          </mxGeometry>
        </mxCell>
        <mxCell id="tgw0Q6IZ3GdZd5LGhPPe-21" value="Mesero" style="swimlane;fontStyle=1;align=center;verticalAlign=top;childLayout=stackLayout;horizontal=1;startSize=26;horizontalStack=0;resizeParent=1;resizeParentMax=0;resizeLast=0;collapsible=1;marginBottom=0;whiteSpace=wrap;html=1;" vertex="1" parent="1">
          <mxGeometry x="950" y="435" width="160" height="70" as="geometry">
            <mxRectangle x="560" y="35" width="70" height="30" as="alternateBounds" />
          </mxGeometry>
        </mxCell>
        <mxCell id="tgw0Q6IZ3GdZd5LGhPPe-22" value="&lt;b&gt;&lt;span style=&quot;white-space: pre;&quot;&gt;&#x9;&lt;/span&gt;idMesero&lt;/b&gt;&lt;div&gt;&lt;span style=&quot;white-space: pre;&quot;&gt;&#x9;&lt;/span&gt;nombre&lt;/div&gt;" style="text;strokeColor=none;fillColor=none;align=left;verticalAlign=top;spacingLeft=4;spacingRight=4;overflow=hidden;rotatable=0;points=[[0,0.5],[1,0.5]];portConstraint=eastwest;whiteSpace=wrap;html=1;" vertex="1" parent="tgw0Q6IZ3GdZd5LGhPPe-21">
          <mxGeometry y="26" width="160" height="44" as="geometry" />
        </mxCell>
        <mxCell id="tgw0Q6IZ3GdZd5LGhPPe-23" value="Contiene" style="endArrow=classicThin;html=1;rounded=0;endFill=1;exitX=1;exitY=0.5;exitDx=0;exitDy=0;entryX=0;entryY=0.322;entryDx=0;entryDy=0;entryPerimeter=0;" edge="1" parent="1" source="tgw0Q6IZ3GdZd5LGhPPe-8" target="tgw0Q6IZ3GdZd5LGhPPe-16">
          <mxGeometry x="-0.2766" relative="1" as="geometry">
            <mxPoint x="860" y="495" as="sourcePoint" />
            <mxPoint x="940" y="567" as="targetPoint" />
            <Array as="points">
              <mxPoint x="910" y="406" />
              <mxPoint x="910" y="355" />
            </Array>
            <mxPoint as="offset" />
          </mxGeometry>
        </mxCell>
        <mxCell id="tgw0Q6IZ3GdZd5LGhPPe-24" value="N" style="resizable=0;html=1;whiteSpace=wrap;align=left;verticalAlign=bottom;fontStyle=1" connectable="0" vertex="1" parent="tgw0Q6IZ3GdZd5LGhPPe-23">
          <mxGeometry x="-1" relative="1" as="geometry" />
        </mxCell>
        <mxCell id="tgw0Q6IZ3GdZd5LGhPPe-25" value="M" style="resizable=0;html=1;whiteSpace=wrap;align=right;verticalAlign=bottom;fontStyle=1" connectable="0" vertex="1" parent="tgw0Q6IZ3GdZd5LGhPPe-23">
          <mxGeometry x="1" relative="1" as="geometry" />
        </mxCell>
        <mxCell id="tgw0Q6IZ3GdZd5LGhPPe-26" value="Prepara" style="endArrow=classic;html=1;rounded=0;endFill=1;entryX=0.008;entryY=0.6;entryDx=0;entryDy=0;entryPerimeter=0;exitX=1.001;exitY=0.407;exitDx=0;exitDy=0;exitPerimeter=0;startFill=1;startArrow=classicThin;" edge="1" parent="1" source="tgw0Q6IZ3GdZd5LGhPPe-14" target="tgw0Q6IZ3GdZd5LGhPPe-9">
          <mxGeometry relative="1" as="geometry">
            <mxPoint x="620" y="465" as="sourcePoint" />
            <mxPoint x="700" y="587" as="targetPoint" />
            <Array as="points">
              <mxPoint x="670" y="455" />
              <mxPoint x="670" y="425" />
            </Array>
          </mxGeometry>
        </mxCell>
        <mxCell id="tgw0Q6IZ3GdZd5LGhPPe-27" value="N" style="resizable=0;html=1;whiteSpace=wrap;align=left;verticalAlign=bottom;fontStyle=1" connectable="0" vertex="1" parent="tgw0Q6IZ3GdZd5LGhPPe-26">
          <mxGeometry x="-1" relative="1" as="geometry" />
        </mxCell>
        <mxCell id="tgw0Q6IZ3GdZd5LGhPPe-28" value="M" style="resizable=0;html=1;whiteSpace=wrap;align=right;verticalAlign=bottom;fontStyle=1" connectable="0" vertex="1" parent="tgw0Q6IZ3GdZd5LGhPPe-26">
          <mxGeometry x="1" relative="1" as="geometry" />
        </mxCell>
        <mxCell id="tgw0Q6IZ3GdZd5LGhPPe-29" value="Recoge" style="endArrow=classicThin;html=1;rounded=0;endFill=1;exitX=1.001;exitY=0.797;exitDx=0;exitDy=0;entryX=-0.001;entryY=0.328;entryDx=0;entryDy=0;entryPerimeter=0;exitPerimeter=0;startArrow=classicThin;startFill=1;" edge="1" parent="1" source="tgw0Q6IZ3GdZd5LGhPPe-9" target="tgw0Q6IZ3GdZd5LGhPPe-22">
          <mxGeometry x="-0.2289" relative="1" as="geometry">
            <mxPoint x="860" y="436" as="sourcePoint" />
            <mxPoint x="950" y="385" as="targetPoint" />
            <Array as="points">
              <mxPoint x="910" y="435" />
              <mxPoint x="910" y="475" />
            </Array>
            <mxPoint as="offset" />
          </mxGeometry>
        </mxCell>
        <mxCell id="tgw0Q6IZ3GdZd5LGhPPe-30" value="M" style="resizable=0;html=1;whiteSpace=wrap;align=left;verticalAlign=bottom;fontStyle=1" connectable="0" vertex="1" parent="tgw0Q6IZ3GdZd5LGhPPe-29">
          <mxGeometry x="-1" relative="1" as="geometry" />
        </mxCell>
        <mxCell id="tgw0Q6IZ3GdZd5LGhPPe-31" value="N" style="resizable=0;html=1;whiteSpace=wrap;align=right;verticalAlign=bottom;fontStyle=1" connectable="0" vertex="1" parent="tgw0Q6IZ3GdZd5LGhPPe-29">
          <mxGeometry x="1" relative="1" as="geometry" />
        </mxCell>
        <mxCell id="tgw0Q6IZ3GdZd5LGhPPe-32" value="Cliente" style="swimlane;fontStyle=1;align=center;verticalAlign=top;childLayout=stackLayout;horizontal=1;startSize=26;horizontalStack=0;resizeParent=1;resizeParentMax=0;resizeLast=0;collapsible=1;marginBottom=0;whiteSpace=wrap;html=1;" vertex="1" parent="1">
          <mxGeometry x="950" y="560" width="160" height="80" as="geometry">
            <mxRectangle x="560" y="35" width="70" height="30" as="alternateBounds" />
          </mxGeometry>
        </mxCell>
        <mxCell id="tgw0Q6IZ3GdZd5LGhPPe-33" value="&lt;b&gt;&lt;span style=&quot;white-space: pre;&quot;&gt;&#x9;&lt;/span&gt;numContacto&lt;/b&gt;&lt;div&gt;&lt;span style=&quot;white-space: pre;&quot;&gt;&#x9;&lt;/span&gt;nombre&lt;/div&gt;&lt;div&gt;&lt;span style=&quot;font-weight: bold; white-space: pre;&quot;&gt;&#x9;&lt;/span&gt;dirección&lt;/div&gt;" style="text;strokeColor=none;fillColor=none;align=left;verticalAlign=top;spacingLeft=4;spacingRight=4;overflow=hidden;rotatable=0;points=[[0,0.5],[1,0.5]];portConstraint=eastwest;whiteSpace=wrap;html=1;" vertex="1" parent="tgw0Q6IZ3GdZd5LGhPPe-32">
          <mxGeometry y="26" width="160" height="54" as="geometry" />
        </mxCell>
        <mxCell id="tgw0Q6IZ3GdZd5LGhPPe-34" value="Informa" style="endArrow=classicThin;html=1;rounded=0;endFill=1;entryX=0.5;entryY=0;entryDx=0;entryDy=0;" edge="1" parent="1" target="tgw0Q6IZ3GdZd5LGhPPe-32">
          <mxGeometry relative="1" as="geometry">
            <mxPoint x="1030" y="505" as="sourcePoint" />
            <mxPoint x="920" y="577" as="targetPoint" />
          </mxGeometry>
        </mxCell>
        <mxCell id="tgw0Q6IZ3GdZd5LGhPPe-35" value="N" style="resizable=0;html=1;whiteSpace=wrap;align=left;verticalAlign=bottom;fontStyle=1;spacingTop=0;spacingBottom=-17;spacingLeft=-12;" connectable="0" vertex="1" parent="tgw0Q6IZ3GdZd5LGhPPe-34">
          <mxGeometry x="-1" relative="1" as="geometry" />
        </mxCell>
        <mxCell id="tgw0Q6IZ3GdZd5LGhPPe-36" value="M" style="resizable=0;html=1;whiteSpace=wrap;align=right;verticalAlign=bottom;fontStyle=1;spacingLeft=0;spacingRight=2;" connectable="0" vertex="1" parent="tgw0Q6IZ3GdZd5LGhPPe-34">
          <mxGeometry x="1" relative="1" as="geometry" />
        </mxCell>
        <mxCell id="tgw0Q6IZ3GdZd5LGhPPe-37" value="Usuario" style="swimlane;fontStyle=1;align=center;verticalAlign=top;childLayout=stackLayout;horizontal=1;startSize=26;horizontalStack=0;resizeParent=1;resizeParentMax=0;resizeLast=0;collapsible=1;marginBottom=0;whiteSpace=wrap;html=1;" vertex="1" parent="1">
          <mxGeometry x="950" y="695" width="160" height="70" as="geometry">
            <mxRectangle x="560" y="35" width="70" height="30" as="alternateBounds" />
          </mxGeometry>
        </mxCell>
        <mxCell id="tgw0Q6IZ3GdZd5LGhPPe-38" value="&lt;b&gt;&lt;span style=&quot;white-space: pre;&quot;&gt;&#x9;&lt;/span&gt;idUsuario&lt;/b&gt;&lt;div&gt;&lt;b style=&quot;background-color: transparent; color: light-dark(rgb(0, 0, 0), rgb(255, 255, 255));&quot;&gt;&lt;span style=&quot;white-space: pre;&quot;&gt;&#x9;&lt;/span&gt;idCajero&lt;/b&gt;&lt;/div&gt;" style="text;strokeColor=none;fillColor=none;align=left;verticalAlign=top;spacingLeft=4;spacingRight=4;overflow=hidden;rotatable=0;points=[[0,0.5],[1,0.5]];portConstraint=eastwest;whiteSpace=wrap;html=1;" vertex="1" parent="tgw0Q6IZ3GdZd5LGhPPe-37">
          <mxGeometry y="26" width="160" height="44" as="geometry" />
        </mxCell>
        <mxCell id="tgw0Q6IZ3GdZd5LGhPPe-39" value="Paga" style="endArrow=classicThin;html=1;rounded=0;endFill=1;entryX=0.5;entryY=0;entryDx=0;entryDy=0;" edge="1" parent="1" target="tgw0Q6IZ3GdZd5LGhPPe-37">
          <mxGeometry x="0.0011" relative="1" as="geometry">
            <mxPoint x="1030" y="640" as="sourcePoint" />
            <mxPoint x="1040" y="570" as="targetPoint" />
            <mxPoint as="offset" />
          </mxGeometry>
        </mxCell>
        <mxCell id="tgw0Q6IZ3GdZd5LGhPPe-40" value="1" style="resizable=0;html=1;whiteSpace=wrap;align=left;verticalAlign=bottom;fontStyle=1;spacingTop=0;spacingBottom=-17;spacingLeft=-12;" connectable="0" vertex="1" parent="tgw0Q6IZ3GdZd5LGhPPe-39">
          <mxGeometry x="-1" relative="1" as="geometry" />
        </mxCell>
        <mxCell id="tgw0Q6IZ3GdZd5LGhPPe-41" value="1" style="resizable=0;html=1;whiteSpace=wrap;align=right;verticalAlign=bottom;fontStyle=1;spacingLeft=0;spacingRight=2;" connectable="0" vertex="1" parent="tgw0Q6IZ3GdZd5LGhPPe-39">
          <mxGeometry x="1" relative="1" as="geometry" />
        </mxCell>
        <mxCell id="tgw0Q6IZ3GdZd5LGhPPe-42" value="Cajero" style="swimlane;fontStyle=1;align=center;verticalAlign=top;childLayout=stackLayout;horizontal=1;startSize=26;horizontalStack=0;resizeParent=1;resizeParentMax=0;resizeLast=0;collapsible=1;marginBottom=0;whiteSpace=wrap;html=1;" vertex="1" parent="1">
          <mxGeometry x="700" y="695" width="160" height="70" as="geometry">
            <mxRectangle x="560" y="35" width="70" height="30" as="alternateBounds" />
          </mxGeometry>
        </mxCell>
        <mxCell id="tgw0Q6IZ3GdZd5LGhPPe-43" value="&lt;b&gt;&lt;span style=&quot;white-space: pre;&quot;&gt;&#x9;&lt;/span&gt;idCajero&lt;/b&gt;&lt;div&gt;&lt;span style=&quot;white-space: pre;&quot;&gt;&#x9;&lt;/span&gt;nombre&lt;/div&gt;" style="text;strokeColor=none;fillColor=none;align=left;verticalAlign=top;spacingLeft=4;spacingRight=4;overflow=hidden;rotatable=0;points=[[0,0.5],[1,0.5]];portConstraint=eastwest;whiteSpace=wrap;html=1;" vertex="1" parent="tgw0Q6IZ3GdZd5LGhPPe-42">
          <mxGeometry y="26" width="160" height="44" as="geometry" />
        </mxCell>
        <mxCell id="tgw0Q6IZ3GdZd5LGhPPe-44" value="Paga" style="endArrow=none;html=1;rounded=0;exitX=1;exitY=0.5;exitDx=0;exitDy=0;entryX=0;entryY=0.5;entryDx=0;entryDy=0;endFill=1;startFill=1;startArrow=classicThin;" edge="1" parent="1" source="tgw0Q6IZ3GdZd5LGhPPe-43" target="tgw0Q6IZ3GdZd5LGhPPe-38">
          <mxGeometry relative="1" as="geometry">
            <mxPoint x="870" y="790" as="sourcePoint" />
            <mxPoint x="970" y="790" as="targetPoint" />
          </mxGeometry>
        </mxCell>
        <mxCell id="tgw0Q6IZ3GdZd5LGhPPe-45" value="1" style="resizable=0;html=1;whiteSpace=wrap;align=left;verticalAlign=bottom;fontStyle=1" connectable="0" vertex="1" parent="tgw0Q6IZ3GdZd5LGhPPe-44">
          <mxGeometry x="-1" relative="1" as="geometry" />
        </mxCell>
        <mxCell id="tgw0Q6IZ3GdZd5LGhPPe-46" value="N" style="resizable=0;html=1;whiteSpace=wrap;align=right;verticalAlign=bottom;fontStyle=1" connectable="0" vertex="1" parent="tgw0Q6IZ3GdZd5LGhPPe-44">
          <mxGeometry x="1" relative="1" as="geometry" />
        </mxCell>
        <mxCell id="tgw0Q6IZ3GdZd5LGhPPe-47" value="" style="endArrow=classicThin;html=1;rounded=0;exitX=0.55;exitY=1.026;exitDx=0;exitDy=0;entryX=0;entryY=0.5;entryDx=0;entryDy=0;endFill=1;exitPerimeter=0;startArrow=classicThin;startFill=1;" edge="1" parent="1" source="tgw0Q6IZ3GdZd5LGhPPe-2" target="tgw0Q6IZ3GdZd5LGhPPe-43">
          <mxGeometry x="0.0005" relative="1" as="geometry">
            <mxPoint x="436" y="650" as="sourcePoint" />
            <mxPoint x="536" y="650" as="targetPoint" />
            <Array as="points">
              <mxPoint x="290" y="743" />
            </Array>
            <mxPoint as="offset" />
          </mxGeometry>
        </mxCell>
        <mxCell id="tgw0Q6IZ3GdZd5LGhPPe-48" value="1" style="resizable=0;html=1;whiteSpace=wrap;align=left;verticalAlign=bottom;fontStyle=1;spacingTop=0;spacingBottom=-19;spacingRight=-1;spacingLeft=-15;" connectable="0" vertex="1" parent="tgw0Q6IZ3GdZd5LGhPPe-47">
          <mxGeometry x="-1" relative="1" as="geometry" />
        </mxCell>
        <mxCell id="tgw0Q6IZ3GdZd5LGhPPe-49" value="N" style="resizable=0;html=1;whiteSpace=wrap;align=right;verticalAlign=bottom;fontStyle=1" connectable="0" vertex="1" parent="tgw0Q6IZ3GdZd5LGhPPe-47">
          <mxGeometry x="1" relative="1" as="geometry" />
        </mxCell>
        <mxCell id="tgw0Q6IZ3GdZd5LGhPPe-50" value="Item" style="swimlane;fontStyle=1;align=center;verticalAlign=top;childLayout=stackLayout;horizontal=1;startSize=26;horizontalStack=0;resizeParent=1;resizeParentMax=0;resizeLast=0;collapsible=1;marginBottom=0;whiteSpace=wrap;html=1;" vertex="1" parent="1">
          <mxGeometry x="1206" y="315" width="160" height="70" as="geometry">
            <mxRectangle x="560" y="35" width="70" height="30" as="alternateBounds" />
          </mxGeometry>
        </mxCell>
        <mxCell id="tgw0Q6IZ3GdZd5LGhPPe-51" value="&lt;b&gt;&lt;span style=&quot;white-space: pre;&quot;&gt;&#x9;&lt;/span&gt;descripción&lt;br&gt;&lt;/b&gt;&lt;div&gt;&lt;span style=&quot;font-weight: bold; white-space: pre;&quot;&gt;&#x9;&lt;/span&gt;precio&lt;br&gt;&lt;/div&gt;" style="text;strokeColor=none;fillColor=none;align=left;verticalAlign=top;spacingLeft=4;spacingRight=4;overflow=hidden;rotatable=0;points=[[0,0.5],[1,0.5]];portConstraint=eastwest;whiteSpace=wrap;html=1;" vertex="1" parent="tgw0Q6IZ3GdZd5LGhPPe-50">
          <mxGeometry y="26" width="160" height="44" as="geometry" />
        </mxCell>
        <mxCell id="tgw0Q6IZ3GdZd5LGhPPe-52" value="Tiene" style="endArrow=classicThin;html=1;rounded=0;exitX=1;exitY=0.5;exitDx=0;exitDy=0;entryX=0;entryY=0.5;entryDx=0;entryDy=0;endFill=1;" edge="1" parent="1" source="tgw0Q6IZ3GdZd5LGhPPe-16" target="tgw0Q6IZ3GdZd5LGhPPe-51">
          <mxGeometry relative="1" as="geometry">
            <mxPoint x="1107" y="405.8" as="sourcePoint" />
            <mxPoint x="1207" y="405.8" as="targetPoint" />
          </mxGeometry>
        </mxCell>
        <mxCell id="tgw0Q6IZ3GdZd5LGhPPe-53" value="1" style="resizable=0;html=1;whiteSpace=wrap;align=left;verticalAlign=bottom;fontStyle=1" connectable="0" vertex="1" parent="tgw0Q6IZ3GdZd5LGhPPe-52">
          <mxGeometry x="-1" relative="1" as="geometry" />
        </mxCell>
        <mxCell id="tgw0Q6IZ3GdZd5LGhPPe-54" value="N" style="resizable=0;html=1;whiteSpace=wrap;align=right;verticalAlign=bottom;fontStyle=1" connectable="0" vertex="1" parent="tgw0Q6IZ3GdZd5LGhPPe-52">
          <mxGeometry x="1" relative="1" as="geometry" />
        </mxCell>
      </root>
    </mxGraphModel>
  </diagram>
</mxfile>
